# xmcd
#
# Track frame offsets:
#	150
#	16529
#	35946
#	56827
#	76526
#	96159
#	115942
#	136874
#	152711
#	170036
#	198249
#
# Disc length: 2968 seconds
#
# Revision: 2
# Processed by: cddbd v1.5.2PL0 Copyright (c) Steve Scherf et al.
# Submitted via: EZCDAudioConverter 8.2.2.1
#
DISCID=860b960b
DTITLE=沢田研二 - ROCK'N ROLL MARCH
DYEAR=2008
DGENRE=East Asia
TTITLE0=ROCK'N ROLL MARCH
TTITLE1=風に押されぼくは
TTITLE2=神々たちよ護れ
TTITLE3=海にむけて
TTITLE4=Beloved
TTITLE5=ロマンスブルー
TTITLE6=やわらかな後悔
TTITLE7=TOMO=DACHI
TTITLE8=我が窮状
TTITLE9=Long Good-by
TTITLE10=護られているI love you
EXTD=
EXTT0=
EXTT1=
EXTT2=
EXTT3=
EXTT4=
EXTT5=
EXTT6=
EXTT7=
EXTT8=
EXTT9=
EXTT10=
PLAYORDER=
